<?xml version="1.0" standalone="no"?>
<!DOCTYPE svg PUBLIC "-//W3C//DTD SVG 20010904//EN"
 "http://www.w3.org/TR/2001/REC-SVG-20010904/DTD/svg10.dtd">
<svg version="1.0" xmlns="http://www.w3.org/2000/svg"
 width="100.000000pt" height="100.000000pt" viewBox="0 0 576.000000 1280.000000"
 preserveAspectRatio="xMidYMid meet">

<g transform="translate(0.000000,1280.000000) scale(0.100000,-0.100000)"
fill="#000000" stroke="none">
<path d="M2632 9249 c-256 -16 -422 -49 -664 -130 -196 -66 -268 -98 -268
-120 0 -10 4 -19 8 -19 4 0 51 18 104 39 302 124 569 177 1008 201 215 12 249
10 420 -20 58 -10 125 -21 150 -25 88 -12 272 -57 378 -92 150 -49 241 -88
427 -180 131 -65 176 -93 317 -195 135 -97 147 -103 162 -88 15 15 -23 47
-184 155 -386 258 -720 384 -1235 466 -129 20 -381 24 -623 8z"/>
<path d="M2650 8959 c-559 -52 -1068 -275 -1494 -655 -260 -231 -498 -563
-636 -889 -144 -338 -204 -638 -204 -1015 1 -349 46 -602 164 -915 287 -761
949 -1359 1731 -1564 261 -68 441 -90 709 -86 283 4 508 42 778 131 200 65
508 220 662 333 499 365 840 850 995 1417 177 644 97 1337 -218 1909 -235 426
-566 765 -985 1007 -443 255 -988 374 -1502 327z m600 -128 c736 -118 1355
-534 1740 -1171 439 -725 463 -1659 64 -2407 -121 -226 -253 -403 -443 -594
-382 -381 -845 -612 -1396 -695 -166 -25 -503 -25 -670 0 -530 79 -986 300
-1362 659 -392 375 -632 831 -729 1383 -24 132 -27 176 -27 389 -1 217 2 255
27 397 80 467 264 864 557 1203 436 505 994 790 1684 859 101 10 435 -4 555
-23z"/>
<path d="M2388 7953 c-21 -3 -28 -10 -28 -26 1 -35 19 -267 26 -324 l6 -53 40
0 c36 0 39 2 33 23 -6 21 -5 21 9 4 10 -13 25 -17 52 -15 31 2 39 8 45 30 9
36 -6 227 -22 261 -15 34 -61 37 -87 7 -17 -20 -17 -19 -22 36 -5 60 -8 63
-52 57z m96 -185 c12 -103 13 -126 5 -139 -16 -26 -28 5 -35 94 -6 75 -5 87 9
87 11 0 17 -13 21 -42z"/>
<path d="M3556 7928 c-2 -7 -17 -97 -33 -200 l-29 -187 34 -6 c19 -3 37 -4 40
-1 3 4 14 56 24 118 17 106 29 140 45 125 4 -4 -1 -62 -10 -129 -9 -67 -16
-123 -14 -124 1 -1 18 -4 38 -8 l36 -6 17 107 c9 60 19 125 22 145 8 52 -9 78
-49 78 -18 0 -39 -6 -46 -12 -10 -11 -11 -3 -5 41 5 40 4 55 -7 62 -21 13 -59
11 -63 -3z"/>
<path d="M2715 7889 c-33 -20 -35 -29 -35 -152 0 -112 1 -119 25 -142 19 -20
34 -25 72 -25 56 1 80 16 93 58 14 50 3 72 -36 72 -19 0 -35 -4 -35 -10 -1 -5
-3 -14 -4 -20 -1 -5 -3 -17 -4 -25 0 -8 -8 -15 -16 -15 -11 0 -15 12 -15 44 0
41 2 44 31 50 17 3 42 6 55 6 23 0 24 3 24 63 0 83 -12 99 -81 104 -31 2 -63
-2 -74 -8z m75 -79 c0 -23 -4 -30 -20 -30 -14 0 -20 7 -20 23 0 27 7 37 27 37
8 0 13 -12 13 -30z"/>
<path d="M3100 7893 c-8 -3 -21 -12 -27 -21 -12 -14 -13 -14 -13 1 0 13 -9 17
-40 17 l-40 0 0 -160 0 -160 40 0 40 0 0 99 c0 116 4 131 36 131 22 0 24 4 24
50 0 28 -1 50 -2 49 -2 0 -10 -3 -18 -6z"/>
<path d="M3254 7872 c-19 -12 -34 -49 -34 -83 0 -27 10 -42 51 -80 37 -35 50
-53 47 -70 -5 -35 -28 -36 -28 -1 0 22 -6 31 -22 36 -51 13 -58 9 -58 -37 0
-55 19 -74 85 -82 71 -10 96 12 103 88 5 61 9 53 -72 120 -22 18 -27 28 -21
46 5 18 9 20 21 10 8 -7 13 -18 10 -25 -5 -14 15 -24 50 -24 29 0 41 37 23 72
-17 33 -28 38 -89 38 -30 0 -60 -4 -66 -8z"/>
<path d="M2217 7840 c-11 -16 -16 -17 -20 -7 -3 9 -17 12 -41 9 -43 -5 -43 1
-13 -182 l22 -135 35 0 c35 0 35 0 34 45 -1 25 -5 77 -9 117 l-8 72 27 7 c22
5 27 11 22 28 -3 11 -6 31 -6 44 0 28 -24 29 -43 2z"/>
<path d="M1533 7792 c-35 -8 -63 -20 -63 -26 0 -13 98 -378 103 -382 2 -2 40
8 85 22 56 17 85 31 93 46 22 42 -14 165 -51 175 -22 6 -26 18 -10 28 13 8 13
64 -1 104 -19 54 -48 60 -156 33z m85 -84 c11 -40 5 -58 -17 -58 -11 0 -20 14
-27 45 -10 43 -9 45 13 45 17 0 25 -8 31 -32z m38 -154 c18 -43 15 -88 -6 -92
-11 -2 -19 15 -30 63 -15 62 -15 65 3 65 11 0 23 -13 33 -36z"/>
<path d="M1880 7793 c-34 -12 -50 -37 -50 -75 0 -30 4 -38 18 -38 31 0 62 12
61 24 -3 25 2 36 16 36 31 0 15 -45 -31 -88 -44 -42 -45 -44 -38 -90 12 -86
23 -99 74 -92 8 1 22 8 31 16 10 9 19 10 25 4 6 -6 25 -7 42 -4 39 8 39 9 11
151 -21 107 -32 142 -53 155 -13 9 -84 9 -106 1z m86 -240 c-9 -22 -24 -14
-31 16 -4 17 -1 40 6 53 12 22 13 22 21 -17 5 -21 6 -45 4 -52z"/>
<path d="M3866 7778 c-21 -19 -30 -43 -48 -128 -12 -59 -19 -116 -15 -131 8
-31 45 -49 106 -52 59 -2 72 18 101 147 31 143 23 161 -82 180 -29 5 -41 2
-62 -16z m84 -64 c0 -18 -39 -174 -47 -187 -2 -4 -10 -3 -17 3 -11 8 -9 26 6
93 10 45 21 88 23 95 6 18 35 15 35 -4z"/>
<path d="M1061 7709 c-21 -62 -14 -140 21 -210 27 -56 89 -122 493 -529 445
-449 525 -536 566 -617 33 -64 22 -139 -31 -218 -93 -139 -48 -295 109 -375
53 -27 106 -34 194 -26 97 10 110 18 72 48 -148 113 -186 212 -111 286 24 25
25 25 52 7 31 -20 214 -205 244 -245 l18 -26 -100 -134 c-149 -198 -327 -420
-337 -420 -5 0 -20 24 -34 53 -51 112 -130 166 -225 153 -80 -10 -182 -68
-250 -140 -128 -138 -163 -300 -96 -447 32 -68 65 -104 129 -137 41 -21 64
-26 125 -26 102 0 160 27 237 107 55 58 94 111 266 357 36 52 90 120 119 150
112 117 330 280 374 280 32 0 84 -33 219 -141 165 -131 200 -171 415 -487 80
-118 174 -216 232 -242 110 -48 228 -33 312 41 l47 42 82 -80 c88 -86 140
-113 177 -93 31 16 25 30 -36 90 -102 99 -164 215 -164 306 0 143 -117 314
-262 383 -159 75 -277 35 -339 -114 -12 -30 -25 -55 -29 -55 -10 0 -72 69
-132 145 -204 262 -310 405 -306 414 6 17 188 210 233 246 51 43 72 38 100
-21 34 -72 3 -139 -103 -226 -75 -61 -72 -65 50 -74 102 -8 170 9 239 60 108
79 132 237 53 342 -36 47 -56 113 -49 161 12 81 75 154 555 638 537 541 555
564 554 690 0 76 -15 115 -42 115 -9 0 -119 -105 -243 -233 -193 -198 -416
-416 -724 -707 -38 -36 -196 -183 -350 -325 -154 -143 -326 -304 -382 -358
l-103 -99 -43 39 c-24 21 -151 139 -283 263 -131 124 -333 313 -449 420 -390
362 -787 753 -948 933 -69 78 -98 86 -116 36z m995 -2398 c17 -10 42 -36 55
-57 35 -57 34 -167 -2 -244 -54 -115 -124 -166 -215 -157 -109 11 -149 57
-148 168 2 85 35 161 101 227 81 80 148 100 209 63z m1809 0 c51 -23 131 -108
157 -169 29 -66 35 -167 11 -212 -26 -50 -75 -75 -150 -75 -87 0 -134 34 -186
135 -37 72 -39 79 -35 156 2 66 8 87 28 117 44 65 103 81 175 48z"/>
<path d="M4141 7698 c-6 -24 -29 -108 -50 -188 -21 -80 -36 -148 -32 -151 3
-4 20 -10 37 -13 31 -7 32 -6 44 42 l11 50 24 -24 c55 -55 84 -26 125 129 29
111 30 120 15 143 -17 26 -62 33 -83 12 -9 -9 -12 -7 -12 10 0 12 -6 22 -12
22 -7 0 -22 3 -34 6 -18 5 -23 -1 -33 -38z m99 -59 c0 -35 -45 -169 -57 -169
-7 0 -13 7 -13 16 0 15 25 121 35 152 5 15 35 16 35 1z"/>
<path d="M4763 7422 c-134 -120 -1050 -1045 -1066 -1077 -23 -48 -28 -80 -13
-100 11 -15 16 -16 37 -5 13 7 112 97 219 200 221 212 528 495 672 618 191
164 258 258 258 366 0 77 -18 76 -107 -2z"/>
<path d="M924 7445 c-3 -20 -1 -56 7 -82 25 -89 82 -156 293 -341 220 -193
454 -410 671 -622 175 -171 225 -200 225 -132 -1 72 -32 108 -473 550 -487
489 -669 662 -697 662 -14 0 -21 -10 -26 -35z"/>
<path d="M904 7226 c-14 -36 3 -113 34 -158 17 -25 125 -136 239 -246 189
-181 285 -269 473 -434 36 -32 114 -105 175 -162 120 -116 170 -150 184 -127
14 22 -5 70 -56 146 -68 100 -383 412 -698 691 -148 131 -287 254 -307 273
-32 28 -39 31 -44 17z"/>
<path d="M4810 7178 c-36 -34 -139 -126 -230 -206 -545 -479 -800 -752 -800
-857 0 -18 5 -25 19 -25 24 0 51 22 236 195 83 77 234 215 337 307 306 275
473 444 503 508 27 61 31 98 13 122 -12 15 -20 10 -78 -44z"/>
<path d="M2562 7004 c-27 -19 -28 -30 -2 -44 14 -7 25 -7 38 1 21 13 52 6 52
-11 0 -6 -19 -28 -42 -48 -130 -113 -131 -124 -10 -120 87 3 87 3 90 31 3 25
1 27 -35 27 l-38 0 37 33 c60 53 72 93 38 127 -25 25 -95 27 -128 4z"/>
<path d="M2765 6987 c-73 -73 -52 -207 33 -207 64 0 122 71 122 148 0 92 -89
125 -155 59z m84 -31 c17 -20 4 -83 -22 -109 -20 -20 -20 -20 -34 -1 -16 22
-11 66 12 101 18 27 28 29 44 9z"/>
<path d="M2962 7004 c-28 -19 -28 -30 -1 -45 15 -8 24 -8 32 0 13 13 44 14 51
2 11 -17 -6 -39 -63 -85 -37 -28 -60 -55 -63 -71 l-5 -26 86 3 c86 3 86 3 89
31 3 25 1 27 -34 27 l-37 0 47 43 c52 49 59 84 26 117 -25 25 -95 27 -128 4z"/>
<path d="M3181 7004 c-28 -20 -60 -88 -61 -127 0 -35 24 -82 45 -91 77 -29
155 43 155 142 0 56 -31 92 -79 92 -20 0 -47 -7 -60 -16z m74 -54 c8 -25 -11
-94 -31 -111 -23 -19 -47 15 -38 56 13 64 55 98 69 55z"/>
<path d="M2241 6924 c-23 -17 -28 -53 -9 -72 22 -22 67 -14 80 14 21 46 -29
87 -71 58z"/>
<path d="M3492 6918 c-7 -7 -12 -21 -12 -33 0 -29 19 -45 52 -45 36 0 56 36
39 69 -13 23 -59 29 -79 9z"/>
<path d="M988 6893 c-13 -59 50 -161 177 -289 114 -114 418 -394 423 -389 3 2
10 30 16 62 l13 58 -246 237 c-233 225 -358 338 -373 338 -3 0 -8 -8 -10 -17z"/>
<path d="M4680 6816 c-58 -51 -194 -181 -302 -287 l-198 -194 10 -59 c5 -32
11 -61 13 -63 3 -2 40 29 83 69 386 358 458 432 503 522 22 45 25 96 6 103 -6
2 -57 -39 -115 -91z"/>
<path d="M1150 6480 c0 -77 96 -175 312 -323 86 -59 161 -107 167 -107 6 0 11
7 11 16 0 30 -39 80 -112 145 -40 35 -75 66 -78 69 -16 16 -135 115 -199 163
-78 61 -101 69 -101 37z"/>
<path d="M4524 6429 c-123 -99 -293 -246 -326 -283 -31 -35 -54 -83 -44 -94 9
-9 46 13 210 126 75 51 160 118 190 148 80 81 119 174 73 174 -7 0 -54 -32
-103 -71z"/>
<path d="M1680 6245 c-8 -10 -11 -32 -7 -64 27 -230 273 -501 453 -501 30 0
54 3 54 8 0 13 -32 55 -90 118 -59 63 -100 137 -100 178 0 18 -28 50 -107 123
-105 95 -174 153 -185 153 -3 0 -11 -7 -18 -15z"/>
<path d="M4054 6231 c-21 -15 -85 -72 -140 -124 -87 -82 -103 -103 -113 -142
-15 -60 -48 -112 -122 -191 -79 -85 -78 -98 6 -92 69 6 123 32 203 96 52 43
150 171 186 244 48 98 64 238 28 238 -5 0 -27 -13 -48 -29z"/>
<path d="M1335 6148 c11 -37 65 -87 140 -131 90 -53 244 -121 253 -112 22 22
-332 265 -385 265 -10 0 -12 -7 -8 -22z"/>
<path d="M4329 6108 c-141 -83 -272 -188 -256 -204 9 -9 244 107 301 149 67
49 110 117 73 117 -7 0 -60 -28 -118 -62z"/>
<path d="M1480 5956 c0 -39 139 -124 259 -160 149 -44 105 3 -94 100 -82 41
-153 74 -157 74 -5 0 -8 -7 -8 -14z"/>
<path d="M4160 5903 c-74 -35 -149 -78 -167 -94 -33 -29 -33 -29 -9 -29 56 0
238 78 295 125 27 24 43 66 24 64 -5 0 -69 -30 -143 -66z"/>
<path d="M1650 5780 c0 -48 203 -128 283 -112 47 10 4 34 -160 92 -88 31 -123
37 -123 20z"/>
<path d="M4020 5759 c-99 -33 -180 -69 -180 -80 0 -22 121 -12 194 17 45 17
102 59 110 80 8 21 -27 17 -124 -17z"/>
<path d="M2585 5278 c-9 -40 -75 -366 -75 -372 0 -3 24 -6 54 -6 59 0 59 -1
72 73 5 32 10 37 34 37 24 0 33 -9 60 -56 l32 -56 176 4 c159 3 182 6 224 27
84 40 128 111 128 206 0 57 -29 106 -81 135 -39 22 -58 25 -166 28 l-122 4 -7
-37 c-5 -31 -8 -35 -16 -20 -21 36 -87 55 -200 55 -103 0 -108 -1 -113 -22z
m203 -80 c18 -18 14 -63 -8 -83 -11 -10 -42 -20 -71 -23 -51 -5 -52 -4 -46 19
3 13 9 41 12 62 7 37 8 37 54 37 26 0 52 -5 59 -12z m364 -18 c27 -28 30 -35
24 -73 -12 -80 -61 -115 -159 -116 -41 -1 -48 2 -43 17 2 9 13 59 22 110 l17
92 54 0 c47 0 59 -4 85 -30z m-288 -167 c-9 -53 -20 -60 -38 -25 -16 31 -16
32 11 46 16 8 29 15 31 16 2 0 0 -17 -4 -37z"/>
<path d="M1390 8840 c0 -15 5 -20 18 -18 9 2 17 10 17 18 0 8 -8 16 -17 18
-13 2 -18 -3 -18 -18z"/>
<path d="M1262 8763 c2 -10 12 -18 23 -18 11 0 21 8 23 18 3 13 -3 17 -23 17
-20 0 -26 -4 -23 -17z"/>
<path d="M993 8568 c-32 -29 -82 -75 -112 -103 -110 -100 -147 -141 -261 -290
-410 -536 -593 -1035 -616 -1680 -9 -258 5 -406 65 -700 16 -77 32 -157 36
-177 4 -30 11 -38 26 -38 25 0 25 -3 -32 284 -53 261 -58 326 -54 611 3 208 6
259 29 380 87 463 230 809 478 1158 167 235 254 334 438 495 47 41 85 81 85
90 0 31 -26 22 -82 -30z"/>
<path d="M4770 8520 c0 -17 164 -170 183 -170 31 0 18 23 -61 102 -50 50 -86
78 -100 78 -12 0 -22 -4 -22 -10z"/>
<path d="M5030 8262 c0 -9 32 -57 70 -105 156 -193 312 -458 394 -667 109
-281 129 -342 156 -480 49 -245 63 -383 64 -635 0 -407 -51 -651 -229 -1081
-121 -293 -217 -450 -446 -725 -154 -186 -304 -314 -629 -541 -98 -68 -133
-108 -96 -108 17 0 305 199 441 305 136 106 372 369 518 578 154 219 326 609
401 905 74 291 103 649 76 923 -6 57 -25 190 -41 294 -29 178 -36 204 -110
404 -44 118 -102 262 -130 319 -90 193 -221 397 -378 590 -36 44 -61 54 -61
24z"/>
<path d="M170 5440 c0 -51 189 -454 218 -465 35 -13 24 23 -49 169 -42 84 -90
189 -107 232 -30 77 -62 111 -62 64z"/>
<path d="M526 4772 c-15 -24 132 -211 288 -368 108 -108 361 -316 501 -414
117 -80 425 -230 580 -282 255 -86 448 -130 665 -153 155 -17 380 -20 380 -5
0 19 -40 30 -107 30 -102 0 -326 19 -428 36 -248 42 -602 157 -805 261 -80 41
-161 84 -180 96 -37 22 -278 198 -320 234 -14 11 -61 51 -105 88 -156 131
-309 295 -395 421 -42 61 -61 76 -74 56z"/>
<path d="M3845 3746 c-76 -28 -291 -90 -370 -108 -41 -9 -60 -18 -60 -28 0
-24 81 -15 220 25 227 65 323 104 310 125 -9 14 -32 11 -100 -14z"/>
</g>
</svg>
